<svg width="200" height="200" viewBox="0 0 200 200" fill="none" xmlns="http://www.w3.org/2000/svg">
<g clip-path="url(#clip0_246_605)">
<path d="M198.132 16.3684C199.248 14.7831 199.889 12.9405 199.987 11.037C200.084 9.13355 199.635 7.24068 198.686 5.56037C197.737 3.88005 196.324 2.47533 194.598 1.49606C192.873 0.51679 190.899 -0.000285092 188.887 1.17924e-07H11.1056C9.09573 0.000983706 7.12378 0.518398 5.39977 1.49714C3.67577 2.47587 2.26427 3.87928 1.31561 5.55788C0.366948 7.23649 -0.0833431 9.12742 0.0126944 11.0293C0.108732 12.9312 0.747499 14.7727 1.86097 16.3579L88.885 140.032V178.947H55.5509V200H144.442V178.947H111.108V140.032L198.132 16.3684ZM99.9963 117.863L61.4955 63.1579H138.497L99.9963 117.863ZM168.131 21.0526L153.32 42.1053H46.673L31.8616 21.0526H168.131Z" fill="white"/>
</g>
<defs>
<clipPath id="clip0_246_605">
<rect width="200" height="200" fill="white"/>
</clipPath>
</defs>
</svg>
