<svg width="40" height="31" viewBox="0 0 40 31" fill="none" xmlns="http://www.w3.org/2000/svg">
<rect x="0.5" y="0.589844" width="39" height="29" rx="3.5" fill="#F8F9FA"/>
<rect x="0.5" y="0.589844" width="39" height="29" rx="3.5" stroke="#F8F9FA"/>
<path d="M20.1813 11.4961C22.15 11.4961 23.775 13.1211 23.775 15.0898C23.775 17.0898 22.15 18.6836 20.1813 18.6836C18.1813 18.6836 16.5875 17.0898 16.5875 15.0898C16.5875 13.1211 18.1813 11.4961 20.1813 11.4961ZM20.1813 17.4336C21.4625 17.4336 22.4938 16.4023 22.4938 15.0898C22.4938 13.8086 21.4625 12.7773 20.1813 12.7773C18.8688 12.7773 17.8375 13.8086 17.8375 15.0898C17.8375 16.4023 18.9 17.4336 20.1813 17.4336ZM24.7438 11.3711C24.7438 11.8398 24.3688 12.2148 23.9 12.2148C23.4313 12.2148 23.0563 11.8398 23.0563 11.3711C23.0563 10.9023 23.4313 10.5273 23.9 10.5273C24.3688 10.5273 24.7438 10.9023 24.7438 11.3711ZM27.1188 12.2148C27.1813 13.3711 27.1813 16.8398 27.1188 17.9961C27.0563 19.1211 26.8063 20.0898 25.9938 20.9336C25.1813 21.7461 24.1813 21.9961 23.0563 22.0586C21.9 22.1211 18.4313 22.1211 17.275 22.0586C16.15 21.9961 15.1813 21.7461 14.3375 20.9336C13.525 20.0898 13.275 19.1211 13.2125 17.9961C13.15 16.8398 13.15 13.3711 13.2125 12.2148C13.275 11.0898 13.525 10.0898 14.3375 9.27734C15.1813 8.46484 16.15 8.21484 17.275 8.15234C18.4313 8.08984 21.9 8.08984 23.0563 8.15234C24.1813 8.21484 25.1813 8.46484 25.9938 9.27734C26.8063 10.0898 27.0563 11.0898 27.1188 12.2148ZM25.6188 19.2148C25.9938 18.3086 25.9 16.1211 25.9 15.0898C25.9 14.0898 25.9938 11.9023 25.6188 10.9648C25.3688 10.3711 24.9 9.87109 24.3063 9.65234C23.3688 9.27734 21.1813 9.37109 20.1813 9.37109C19.15 9.37109 16.9625 9.27734 16.0563 9.65234C15.4313 9.90234 14.9625 10.3711 14.7125 10.9648C14.3375 11.9023 14.4313 14.0898 14.4313 15.0898C14.4313 16.1211 14.3375 18.3086 14.7125 19.2148C14.9625 19.8398 15.4313 20.3086 16.0563 20.5586C16.9625 20.9336 19.15 20.8398 20.1813 20.8398C21.1813 20.8398 23.3688 20.9336 24.3063 20.5586C24.9 20.3086 25.4 19.8398 25.6188 19.2148Z" fill="black"/>
</svg>
